HIERARCHY
ROOT Pelvis
{
	OFFSET 0.000000 0.000000 0.000000
	CHANNELS 6 Xposition Yposition Zposition Xrotation Yrotation Zrotation
	JOINT LeftUpLeg_virtual
	{
		OFFSET 0.000000 0.000000 0.000000
		CHANNELS 3 Xrotation Yrotation Zrotation
		JOINT LeftUpLeg
		{
			OFFSET 18.735201 -5.666702 -4.541200
			CHANNELS 3 Xrotation Yrotation Zrotation
			JOINT LeftLeg
			{
				OFFSET -0.021200 -31.938179 0.493100
				CHANNELS 3 Xrotation Yrotation Zrotation
				JOINT LeftFoot
				{
					OFFSET 0.021200 -31.938179 -4.336299
					CHANNELS 3 Xrotation Yrotation Zrotation
					JOINT LeftToeBase
					{
						OFFSET 0.943001 -26.722000 15.023500
						CHANNELS 3 Xrotation Yrotation Zrotation
						End Site
						{
							OFFSET 0 0 0
						}
					}
				}
			}
		}
	}
	JOINT RightUpLeg_virtual
	{
		OFFSET 0.000000 0.000000 0.000000
		CHANNELS 3 Xrotation Yrotation Zrotation
		JOINT RightUpLeg
		{
			OFFSET -18.735201 -5.666702 -4.541200
			CHANNELS 3 Xrotation Yrotation Zrotation
			JOINT RightLeg
			{
				OFFSET 0.018946 -31.938133 0.493100
				CHANNELS 3 Xrotation Yrotation Zrotation
				JOINT RightFoot
				{
					OFFSET -0.018946 -31.938126 -4.336299
					CHANNELS 3 Xrotation Yrotation Zrotation
					JOINT RightToeBase
					{
						OFFSET -0.943001 -26.722004 15.023500
						CHANNELS 3 Xrotation Yrotation Zrotation
						End Site
						{
							OFFSET 0 0 0
						}
					}
				}
			}
		}
	}
	JOINT Hips_virtual
	{
		OFFSET 0.000000 0.000000 0.000000
		CHANNELS 3 Xrotation Yrotation Zrotation
		JOINT Hips
		{
			OFFSET -0.000000 -0.000000 -0.000000
			CHANNELS 3 Xrotation Yrotation Zrotation
			JOINT Spine
			{
				OFFSET 0.000000 10.199997 -0.299500
				CHANNELS 3 Xrotation Yrotation Zrotation
				JOINT Spine1
				{
					OFFSET 0.000000 11.900002 -1.516600
					CHANNELS 3 Xrotation Yrotation Zrotation
					JOINT Spine2
					{
						OFFSET 0.000000 13.600006 -2.842500
						CHANNELS 3 Xrotation Yrotation Zrotation
						JOINT Neck_virtual
						{
							OFFSET 0.000000 0.000000 0.000000
							CHANNELS 3 Xrotation Yrotation Zrotation
							JOINT Neck
							{
								OFFSET 0.000000 9.624100 -2.890100
								CHANNELS 3 Xrotation Yrotation Zrotation
								JOINT Head
								{
									OFFSET 0.000000 14.068802 -1.351900
									CHANNELS 3 Xrotation Yrotation Zrotation
									End Site
									{
										OFFSET 0 0 0
									}
								}
							}
						}
						JOINT LeftShoulder_virtual
						{
							OFFSET 0.000000 0.000000 0.000000
							CHANNELS 3 Xrotation Yrotation Zrotation
							JOINT LeftShoulder
							{
								OFFSET 15.263000 10.923401 -0.547700
								CHANNELS 3 Xrotation Yrotation Zrotation
								JOINT LeftArm
								{
									OFFSET 25.438599 -2.830597 -13.032500
									CHANNELS 3 Xrotation Yrotation Zrotation
									JOINT LeftForeArm
									{
										OFFSET 29.960503 0.000000 0.000000
										CHANNELS 3 Xrotation Yrotation Zrotation
										JOINT LeftHand
										{
											OFFSET 27.849251 0.000000 0.000000
											CHANNELS 3 Xrotation Yrotation Zrotation
											End Site
											{
												OFFSET 0 0 0
											}
										}
									}
								}
							}
						}
						JOINT RightShoulder_virtual
						{
							OFFSET 0.000000 0.000000 0.000000
							CHANNELS 3 Xrotation Yrotation Zrotation
							JOINT RightShoulder
							{
								OFFSET -15.263000 10.923401 -0.547700
								CHANNELS 3 Xrotation Yrotation Zrotation
								JOINT RightArm
								{
									OFFSET -25.438599 -2.830597 -13.032500
									CHANNELS 3 Xrotation Yrotation Zrotation
									JOINT RightForeArm
									{
										OFFSET -29.960503 0.000000 0.000000
										CHANNELS 3 Xrotation Yrotation Zrotation
										JOINT RightHand
										{
											OFFSET -27.849251 0.000000 0.000000
											CHANNELS 3 Xrotation Yrotation Zrotation
											End Site
											{
												OFFSET 0 0 0
											}
										}
									}
								}
							}
						}
					}
				}
			}
		}
	}
}
MOTION
Frames: 13
Frame Time: 0.03333333
1.472829 93.130699 0.709969 0.000000 0.000000 0.000000 9.661294 -20.052283 -0.019408 -27.762972 6.646507 13.672224 36.499141 3.508911 -2.809690 -11.923710 4.902791 -7.196333 0.000000 0.000000 0.000000 8.808866 -1.307852 0.949869 -17.562252 -5.984945 -13.574185 28.092869 -2.203277 0.205713 -19.313024 -6.574996 10.017404 0.000000 0.000000 0.000000 0.588097 -2.454571 0.673043 2.942179 4.055765 0.671027 5.812921 -0.058944 0.666961 1.759696 0.097525 0.171785 0.000000 0.000000 0.000000 2.241874 -0.012491 0.385899 -1.002260 0.122625 0.018914 0.000000 0.000000 0.000000 2.422606 1.401790 -0.775198 1.023556 0.873684 -10.591331 5.792710 -3.371803 -52.085998 4.310644 -32.356850 -3.181808 0.000000 0.000000 0.000000 3.046991 -1.569096 1.215756 1.239658 0.065450 10.560617 5.726619 5.393000 51.086642 5.248714 46.637293 1.450344 0.000000 0.000000 0.000000 
0.819240 93.090584 0.523134 0.000000 0.000000 0.000000 10.111917 -21.919960 0.099826 -26.974668 6.240854 13.335090 36.026919 3.429483 -3.197492 -12.415502 5.028273 -7.898357 0.000000 0.000000 0.000000 8.325829 -1.616625 1.439606 -18.330022 -6.100083 -13.099021 27.343648 -2.776467 0.138092 -20.176281 -7.151525 9.487187 0.000000 0.000000 0.000000 -0.369678 -3.581025 -0.071193 5.760605 3.970514 0.193786 5.301466 -0.618552 0.420195 1.508835 0.098045 0.399370 0.000000 0.000000 0.000000 2.177260 -0.063470 0.141599 -0.981565 0.191554 0.016573 0.000000 0.000000 0.000000 1.455614 1.232617 -0.892178 1.298554 1.369771 -11.663645 6.150656 -3.235530 -54.014386 5.165488 -32.882054 -3.196431 0.000000 0.000000 0.000000 2.614543 -1.472585 1.034730 1.395419 0.237672 10.894638 5.677226 5.597584 50.763936 4.748606 49.614754 1.642723 0.000000 0.000000 0.000000 
-0.165254 93.024315 1.374695 0.000000 0.000000 0.000000 10.754027 -22.746386 0.052505 -25.838358 6.177381 12.888533 35.686823 3.388755 -3.399062 -12.578584 5.127813 -8.297705 0.000000 0.000000 0.000000 7.945673 -1.980254 1.296231 -18.860997 -6.079225 -13.319949 26.718713 -3.169575 0.245921 -20.645666 -7.615552 9.360554 0.000000 0.000000 0.000000 0.847080 -3.583682 0.617020 4.305382 4.477064 -1.418209 5.860171 -1.263381 -0.285017 0.788254 -0.203795 0.523919 0.000000 0.000000 0.000000 2.363734 -0.320783 0.014847 -0.999361 0.144643 -0.041491 0.000000 0.000000 0.000000 0.829465 1.421962 -0.929646 0.911043 1.001291 -12.531526 4.729301 -2.862671 -53.053194 5.244971 -32.258772 -2.366171 0.000000 0.000000 0.000000 2.378115 -1.548453 0.825926 1.746566 -1.044644 10.738840 6.162222 4.397072 51.716304 3.959500 48.816124 2.098239 0.000000 0.000000 0.000000 
-0.216083 92.630867 0.328335 0.000000 0.000000 0.000000 11.084459 -21.318335 0.763284 -25.750006 6.399879 13.942509 36.607096 2.945236 -3.508251 -11.783522 4.721136 -8.776808 0.000000 0.000000 0.000000 8.443978 -0.663768 1.485616 -17.961526 -5.843889 -12.864689 27.561857 -3.528106 0.230886 -19.890464 -7.899717 9.090262 0.000000 0.000000 0.000000 0.174424 -2.526329 -0.017236 7.471667 5.306534 -2.545141 4.942420 -1.703474 -0.202593 0.908288 0.075929 -0.027721 0.000000 0.000000 0.000000 2.367432 -0.396539 -0.009446 -1.068020 0.124508 -0.028670 0.000000 0.000000 0.000000 1.266881 1.169663 -1.277394 0.740806 1.274026 -12.926311 4.240084 -4.680284 -53.613467 4.864153 -34.276007 -2.471546 0.000000 0.000000 0.000000 2.428213 -1.443605 0.677291 1.360238 -0.956385 11.615519 5.269739 4.057410 51.352945 3.600284 50.067766 2.252859 0.000000 0.000000 0.000000 
-0.641930 92.690491 0.695957 0.000000 0.000000 0.000000 11.696083 -21.252019 1.313455 -25.307447 6.422283 14.539401 37.296685 2.819164 -3.467343 -11.176408 4.557331 -8.810176 0.000000 0.000000 0.000000 8.004256 -0.039952 1.766988 -18.580350 -5.672940 -12.473550 27.604968 -3.423868 0.464447 -19.958511 -7.907570 9.512157 0.000000 0.000000 0.000000 1.671952 -2.170489 0.082208 6.041158 3.936826 -1.289660 5.394006 -1.600595 -0.902533 0.263372 -0.067846 0.082734 0.000000 0.000000 0.000000 2.489385 -0.527663 -0.133062 -1.320845 0.212796 -0.062810 0.000000 0.000000 0.000000 1.201244 0.936237 -1.257435 0.612784 1.979579 -13.433257 4.099861 -4.152323 -52.426049 4.509231 -34.554921 -2.261367 0.000000 0.000000 0.000000 2.117792 -1.493812 0.785571 1.462570 -0.715041 11.425984 5.966340 1.982317 51.149183 2.687718 51.129601 2.855567 0.000000 0.000000 0.000000 
-0.721730 92.848572 1.583099 0.000000 0.000000 0.000000 11.912551 -21.053524 0.976322 -25.122249 6.659913 14.242125 38.564396 1.956466 -3.504010 -10.058122 3.674857 -9.441644 0.000000 0.000000 0.000000 8.237457 0.571688 1.584581 -18.372145 -5.505665 -12.641035 27.982674 -3.351036 0.660721 -19.857773 -7.914958 9.865510 0.000000 0.000000 0.000000 -0.660617 -4.797643 0.562911 5.003064 7.683818 -0.870395 4.323265 -2.388250 -1.017279 0.742261 0.054481 0.030296 0.000000 0.000000 0.000000 1.948667 -0.362465 -0.114724 -1.234332 0.194861 -0.036025 0.000000 0.000000 0.000000 0.758891 1.098637 -1.327946 0.673817 2.571389 -12.841878 4.512715 -4.330689 -52.167947 5.381454 -35.863442 -1.564637 0.000000 0.000000 0.000000 1.993313 -1.525107 0.747125 1.367648 -1.399081 11.455473 4.298216 2.249854 52.336553 2.652101 49.560935 3.423162 0.000000 0.000000 0.000000 
-0.617621 92.650703 2.134771 0.000000 0.000000 0.000000 11.827093 -19.523119 0.528747 -25.008724 7.127096 13.984800 38.785653 2.093553 -3.298554 -9.722969 3.710443 -9.082883 0.000000 0.000000 0.000000 7.687057 1.177782 1.481148 -19.038860 -5.198926 -12.634013 28.453366 -2.952050 0.566458 -19.362521 -7.437688 9.913920 0.000000 0.000000 0.000000 -0.241845 -4.397616 0.863171 3.976364 6.543851 0.680422 3.971381 -1.882394 -1.347496 0.993500 -0.516126 -0.157951 0.000000 0.000000 0.000000 2.550202 -0.422633 -0.133993 -1.159918 0.150065 -0.092837 0.000000 0.000000 0.000000 0.936169 1.001328 -1.305935 0.781682 1.670888 -12.805874 6.599942 -4.812635 -51.394400 5.540353 -36.516182 -1.644240 0.000000 0.000000 0.000000 1.793263 -1.499749 0.753786 1.140553 -2.507302 11.760576 3.446691 0.603344 52.647201 1.512439 48.726932 4.268678 0.000000 0.000000 0.000000 
-0.697783 92.604134 1.155247 0.000000 0.000000 0.000000 10.801847 -17.458826 -0.040760 -26.441868 7.566986 13.975810 37.597753 2.243179 -2.996646 -10.660418 3.784474 -8.559152 0.000000 0.000000 0.000000 6.556392 0.157031 1.404047 -20.867929 -5.293871 -12.936193 29.217859 -2.837457 0.444025 -18.806996 -7.171027 9.755562 0.000000 0.000000 0.000000 -0.098769 -6.578704 0.761508 5.094106 7.537959 0.806458 3.841432 -2.085533 -1.040292 0.088438 -0.529568 -0.328853 0.000000 0.000000 0.000000 2.329290 -0.463185 -0.273242 -1.309819 0.068185 -0.028195 0.000000 0.000000 0.000000 0.579030 0.738546 -1.317305 0.364898 2.124605 -12.871478 6.743341 -4.366781 -52.311698 5.267011 -38.908719 -1.386686 0.000000 0.000000 0.000000 1.890587 -1.427950 0.514864 0.653806 -2.843109 11.961704 4.218286 -0.256153 52.722449 1.515716 50.195952 4.435227 0.000000 0.000000 0.000000 
-0.918730 92.970200 1.795303 0.000000 0.000000 0.000000 10.710350 -15.482755 -0.515450 -26.488481 8.168505 13.783667 36.493745 2.589932 -2.405319 -11.497508 3.890112 -7.447649 0.000000 0.000000 0.000000 6.442780 0.323097 1.603937 -21.126750 -5.281118 -12.751893 30.829377 -2.211466 0.087742 -17.677201 -6.257439 9.578018 0.000000 0.000000 0.000000 0.384302 -5.858792 1.239331 3.845197 8.161257 0.587527 3.838214 -2.098751 -1.396369 0.159164 -0.470733 -0.259370 0.000000 0.000000 0.000000 2.237944 -0.424001 -0.347619 -1.361712 0.050866 -0.091852 0.000000 0.000000 0.000000 0.399075 0.731714 -1.443843 0.421833 1.636555 -13.162806 6.492929 -4.399622 -51.530243 5.161422 -38.809036 -1.338592 0.000000 0.000000 0.000000 1.755152 -1.397002 0.533273 0.800547 -2.597071 11.711102 3.747015 0.024426 52.489813 1.660040 49.417023 4.283466 0.000000 0.000000 0.000000 
-1.144488 93.180244 2.026199 0.000000 0.000000 0.000000 10.887163 -14.081887 -1.129940 -26.070448 8.717614 13.243114 34.864854 2.728017 -1.955154 -12.562802 3.871514 -6.702917 0.000000 0.000000 0.000000 5.886710 -0.049434 1.633559 -21.790093 -5.293138 -12.691766 32.005802 -1.785834 -0.256040 -16.601825 -5.562187 9.274904 0.000000 0.000000 0.000000 0.446762 -5.751483 1.587667 3.877177 8.065228 0.963169 4.335023 -2.079055 -1.600943 0.339780 -0.489588 -0.367401 0.000000 0.000000 0.000000 2.337909 -0.504226 -0.352337 -1.341763 0.011191 -0.163044 0.000000 0.000000 0.000000 0.334883 0.662195 -1.281502 0.528083 1.864641 -13.383846 6.174144 -4.198796 -50.924828 4.686575 -40.195533 -1.250124 0.000000 0.000000 0.000000 2.053581 -1.336113 0.501560 0.843583 -2.866092 11.019991 3.743511 0.122120 52.885089 1.915143 50.658215 4.104493 0.000000 0.000000 0.000000 
-1.131083 93.324020 2.432325 0.000000 0.000000 0.000000 11.256959 -13.556216 -1.545048 -25.539814 9.058834 12.806083 34.194485 2.814968 -1.703248 -13.092141 3.876248 -6.276476 0.000000 0.000000 0.000000 5.611252 -0.310749 1.650407 -22.334246 -5.316798 -12.773694 34.675607 -1.128543 -0.662788 -14.571169 -4.505693 9.081943 0.000000 0.000000 0.000000 0.249339 -5.070595 1.491098 3.937552 7.478127 1.084893 4.689061 -2.296290 -1.805903 0.361154 -0.584384 -0.303037 0.000000 0.000000 0.000000 2.318669 -0.549358 -0.370381 -1.360016 0.046369 -0.139825 0.000000 0.000000 0.000000 0.462791 0.435897 -1.248566 0.563948 1.592809 -13.360842 5.962671 -5.415293 -51.069666 5.204651 -42.181158 -0.825569 0.000000 0.000000 0.000000 1.973512 -1.275945 0.559952 1.037662 -2.814546 11.965658 4.424530 0.755349 53.049284 1.849470 52.155666 4.167621 0.000000 0.000000 0.000000 
-0.804370 93.452118 2.675364 0.000000 0.000000 0.000000 11.970496 -13.951618 -1.689628 -24.695623 9.196747 12.512419 34.266267 2.897745 -1.560213 -13.108818 3.886122 -6.004587 0.000000 0.000000 0.000000 5.330473 0.393664 1.789070 -22.722808 -5.115126 -12.566770 36.566176 -0.443524 -1.182248 -13.087812 -3.404034 8.720047 0.000000 0.000000 0.000000 -0.072473 -5.538368 1.656494 3.585025 9.775947 0.795191 4.749678 -2.197051 -1.846067 0.285634 -0.597051 -0.366959 0.000000 0.000000 0.000000 2.561604 -0.463381 -0.406372 -1.352257 0.091565 -0.171313 0.000000 0.000000 0.000000 0.553721 0.480296 -1.127226 0.480636 1.407984 -13.449026 6.548055 -5.847466 -51.043646 4.831403 -42.632391 -0.918816 0.000000 0.000000 0.000000 2.256703 -1.207845 0.468125 0.984261 -2.841966 11.560169 4.564389 1.408151 53.083616 2.206394 53.072230 3.848079 0.000000 0.000000 0.000000 
-0.538952 93.225159 2.836561 0.000000 0.000000 0.000000 12.028473 -14.281890 -1.906319 -24.515871 9.191202 12.178792 33.547895 3.207383 -1.414121 -13.686815 4.150747 -5.602938 0.000000 0.000000 0.000000 4.926382 -0.167173 2.060908 -23.251769 -5.258111 -12.315150 38.251573 -0.042385 -2.005660 -11.640668 -2.414855 7.647490 0.000000 0.000000 0.000000 -0.601461 -5.004992 1.549958 3.946015 9.012102 1.139033 4.791846 -2.164805 -1.950867 0.316888 -0.685304 -0.409055 0.000000 0.000000 0.000000 2.382799 -0.432421 -0.377588 -1.306294 0.109903 -0.144203 0.000000 0.000000 0.000000 0.697301 0.413213 -1.067187 0.541978 0.816507 -13.369359 6.417464 -6.203069 -51.231285 5.174742 -42.574451 -0.728515 0.000000 0.000000 0.000000 2.255498 -1.268380 0.571783 1.283383 -2.925672 12.089839 4.494439 0.854511 52.882511 2.416175 51.615863 3.616959 0.000000 0.000000 0.000000 
